<svg preserveAspectRatio="none" width="100%" height="100%" overflow="visible" style="display: block;" viewBox="0 0 276 52" fill="none" xmlns="http://www.w3.org/2000/svg">
<g id="logo_likeme 1" clip-path="url(#clip0_0_55)">
<path id="Vector" d="M151.919 28.6601C154.946 28.6601 157.216 29.2941 158.73 30.5621C160.243 31.9006 161 33.9434 161 36.6908C161 39.5086 160.243 41.5515 158.73 42.8195C157.216 44.158 154.946 44.8272 151.919 44.8272C148.82 44.8272 146.514 44.158 145 42.8194C143.414 41.5515 142.621 39.5086 142.621 36.6908C142.621 31.3369 145.721 28.6601 151.919 28.6601Z" fill="url(#paint0_radial_0_55)"/>
<path id="Vector_2" d="M0 50.5209V0.0674515H12.0066V50.5209H0ZM2.21778 50.5209V40.2773H28.1429V50.5209H2.21778Z" fill="var(--fill-0, #001137)"/>
<path id="Vector_3" d="M31.4058 50.5209V0.0674515H43.6418V50.5209H31.4058Z" fill="var(--fill-0, #001137)"/>
<path id="Vector_4" d="M50.3394 50.5209V0.0674515H62.3459V22.5421C64.0284 21.319 65.5579 19.9176 66.9345 18.3377C68.311 16.7579 69.5347 15.0251 70.6053 13.1395C71.676 11.2539 72.5682 9.2408 73.2819 7.10035C73.9957 4.90894 74.5056 2.56464 74.8115 0.0674515H88.2712C87.8122 2.71753 87.0985 5.29117 86.1298 7.78836C85.1612 10.2346 83.9375 12.5279 82.459 14.6683C80.9804 16.8089 79.298 18.7454 77.4116 20.4782C75.5762 22.2109 73.5624 23.6379 71.3701 24.7591V25.5999C73.3585 25.5999 75.1428 25.8293 76.7234 26.288C78.3548 26.6956 79.7824 27.3582 81.006 28.2756C82.2296 29.1928 83.2493 30.4415 84.065 32.0213C84.8807 33.5503 85.5181 35.4104 85.9769 37.6018L88.6535 50.5209H75.7292L74.1232 40.8889C73.7153 38.2898 73.18 36.2768 72.5172 34.8498C71.9054 33.3719 71.0386 32.3271 69.917 31.7155C68.7954 31.1039 67.2658 30.7982 65.3285 30.7982H62.3459V50.5209H50.3394Z" fill="var(--fill-0, #001137)"/>
<path id="Vector_5" d="M113.042 51.7485C109.011 51.7485 105.453 51.1819 102.367 50.0487C99.3441 48.8526 96.762 47.1844 94.6206 45.0438C92.5424 42.8405 90.9679 40.1964 89.8972 37.1117C88.8265 34.0268 88.2912 30.5643 88.2912 26.7241C88.2912 22.8839 88.8265 19.3584 89.8972 16.1477C90.9679 12.8742 92.5109 10.0412 94.5262 7.64895C96.5415 5.19373 99.0292 3.30511 101.989 1.98306C104.949 0.661023 108.35 0 112.192 0C115.782 0 118.962 0.598067 121.733 1.7942C124.567 2.99033 126.929 4.78453 128.819 7.17679C130.771 9.50612 132.188 12.402 133.07 15.8645C133.951 19.264 134.266 23.1986 134.014 27.6685L95.6599 28.0462V21.2471L126.929 20.9638L123.339 24.8355C123.654 21.31 123.371 18.4142 122.489 16.1477C121.607 13.8185 120.253 12.0872 118.427 10.9541C116.664 9.75793 114.617 9.15986 112.286 9.15986C109.641 9.15986 107.343 9.85237 105.39 11.2374C103.438 12.6223 101.926 14.6054 100.856 17.1866C99.848 19.7677 99.3441 22.8839 99.3441 26.5353C99.3441 32.0124 100.541 36.1358 102.934 38.9058C105.39 41.6758 108.791 43.0608 113.137 43.0608C115.026 43.0608 116.632 42.809 117.955 42.3053C119.34 41.8016 120.474 41.1407 121.356 40.3222C122.237 39.5038 122.93 38.5596 123.434 37.4894C123.938 36.4191 124.316 35.3174 124.567 34.1842L134.676 36.1673C134.235 38.4966 133.479 40.6056 132.408 42.4943C131.338 44.3829 129.889 46.0197 128.063 47.4046C126.299 48.7897 124.19 49.8599 121.733 50.6154C119.277 51.3708 116.38 51.7485 113.042 51.7485Z" fill="var(--fill-0, #001137)"/>
<path id="Vector_6" d="M170.558 50.5238V0.0703222H188.223L197.248 37.2989H197.937L206.884 0.0703222H224.167V50.5238H213.078L213.69 11.8428H212.773L202.678 50.5238H191.972L181.953 11.8428H181.111L181.724 50.5238H170.558Z" fill="var(--fill-0, #001137)"/>
<path id="Vector_7" d="M254.367 51.7514C250.336 51.7514 246.777 51.1848 243.692 50.0516C240.668 48.8554 238.087 47.1873 235.945 45.0467C233.866 42.8434 232.292 40.1992 231.222 37.1144C230.151 34.0297 229.616 30.5672 229.616 26.727C229.616 22.8868 230.151 19.3613 231.222 16.1506C232.292 12.877 233.836 10.0441 235.85 7.65183C237.866 5.19661 240.354 3.30798 243.314 1.98594C246.273 0.663893 249.675 0.00287057 253.517 0.00287057C257.106 0.00287057 260.287 0.600937 263.058 1.79708C265.892 2.99321 268.253 4.78741 270.143 7.17967C272.096 9.50898 273.512 12.4049 274.395 15.8674C275.276 19.2669 275.591 23.2015 275.338 27.6714L236.984 28.0491V21.2499L268.253 20.9667L264.664 24.8384C264.979 21.3129 264.696 18.4171 263.814 16.1506C262.931 13.8214 261.577 12.0901 259.751 10.9569C257.988 9.7608 255.942 9.16273 253.611 9.16273C250.965 9.16273 248.667 9.85523 246.715 11.2402C244.761 12.6252 243.25 14.6082 242.181 17.1895C241.172 19.7705 240.668 22.8868 240.668 26.5382C240.668 32.0152 241.866 36.1387 244.259 38.9087C246.715 41.6787 250.115 43.0637 254.46 43.0637C256.351 43.0637 257.956 42.8119 259.278 42.3082C260.664 41.8045 261.798 41.1436 262.68 40.3251C263.561 39.5067 264.255 38.5625 264.758 37.4921C265.262 36.422 265.639 35.3203 265.892 34.1871L276 36.1702C275.559 38.4995 274.804 40.6084 273.733 42.4971C272.662 44.3858 271.214 46.0226 269.388 47.4075C267.623 48.7925 265.513 49.8628 263.058 50.6182C260.602 51.3737 257.705 51.7514 254.367 51.7514Z" fill="var(--fill-0, #001137)"/>
<path id="Vector_8" d="M151.703 22.7812C148.676 22.7812 146.406 22.1472 144.891 20.8792C143.378 19.5407 142.621 17.4979 142.621 14.7505C142.621 11.9327 143.378 9.88976 144.891 8.62176C146.406 7.28331 148.676 6.61408 151.703 6.61408C154.803 6.61408 157.109 7.28331 158.622 8.62176C160.207 9.88976 161 11.9327 161 14.7505C161 20.1042 157.901 22.7812 151.703 22.7812Z" fill="url(#paint1_radial_0_55)"/>
</g>
<defs>
<radialGradient id="paint0_radial_0_55" cx="0" cy="0" r="1" gradientUnits="userSpaceOnUse" gradientTransform="translate(151.812 27.2532) rotate(90) scale(19.264 16.6445)">
<stop stop-color="#D8E4D6"/>
<stop offset="0.807692" stop-color="#0154F8"/>
<stop offset="0.966346" stop-color="#00297B"/>
</radialGradient>
<radialGradient id="paint1_radial_0_55" cx="0" cy="0" r="1" gradientUnits="userSpaceOnUse" gradientTransform="translate(151.812 24.1879) rotate(-90) scale(19.264 16.6445)">
<stop offset="0.0961538" stop-color="#D8E4D6"/>
<stop offset="0.807692" stop-color="#EB7DC6"/>
<stop offset="0.966346" stop-color="#B14D8F"/>
</radialGradient>
<clipPath id="clip0_0_55">
<rect width="276" height="52" fill="white"/>
</clipPath>
</defs>
</svg>
