<svg preserveAspectRatio="none" width="100%" height="100%" overflow="visible" style="display: block;" viewBox="0 0 46 10.1625" fill="none" xmlns="http://www.w3.org/2000/svg">
<g id="Logo Container">
<path id="LIKe.Me" d="M5.92941 10.1625C3.95294 10.1625 2.47059 9.76398 1.48235 8.96692C0.494118 8.12558 0 6.84143 0 5.11447C0 3.34322 0.494118 2.05907 1.48235 1.26201C2.47059 0.420669 3.95294 0 5.92941 0C7.95294 0 9.45882 0.420669 10.4471 1.26201C11.4823 2.05907 12 3.34322 12 5.11447C12 8.47984 9.97647 10.1625 5.92941 10.1625Z" fill="var(--fill-0, #D9D9D9)"/>
<path id="LIKe.Me_2" d="M22.9294 10.1625C20.9529 10.1625 19.4706 9.76398 18.4824 8.96692C17.4941 8.12558 17 6.84143 17 5.11447C17 3.34322 17.4941 2.05907 18.4824 1.26201C19.4706 0.420669 20.9529 0 22.9294 0C24.9529 0 26.4588 0.420669 27.4471 1.26201C28.4823 2.05907 29 3.34322 29 5.11447C29 8.47984 26.9765 10.1625 22.9294 10.1625Z" fill="var(--fill-0, #D9D9D9)"/>
<path id="LIKe.Me_3" d="M39.9294 10.1625C37.9529 10.1625 36.4706 9.76398 35.4824 8.96692C34.4941 8.12558 34 6.84143 34 5.11447C34 3.34322 34.4941 2.05907 35.4824 1.26201C36.4706 0.420669 37.9529 0 39.9294 0C41.9529 0 43.4588 0.420669 44.4471 1.26201C45.4823 2.05907 46 3.34322 46 5.11447C46 8.47984 43.9765 10.1625 39.9294 10.1625Z" fill="var(--fill-0, #0154F8)"/>
</g>
</svg>
