<svg preserveAspectRatio="none" width="100%" height="100%" overflow="visible" style="display: block;" viewBox="0 0 130 25" fill="none" xmlns="http://www.w3.org/2000/svg">
<g id="logo_likeme 3" clip-path="url(#clip0_0_90)">
<path id="Vector" d="M71.5558 13.7789C72.9817 13.7789 74.051 14.0837 74.7643 14.6933C75.4769 15.3368 75.8336 16.319 75.8336 17.6398C75.8336 18.9945 75.4769 19.9767 74.7643 20.5863C74.051 21.2298 72.9817 21.5515 71.5558 21.5515C70.0966 21.5515 69.0103 21.2298 68.297 20.5862C67.5502 19.9767 67.1767 18.9945 67.1767 17.6398C67.1767 15.0658 68.6366 13.7789 71.5558 13.7789Z" fill="url(#paint0_radial_0_90)"/>
<path id="Vector_2" d="M0 24.2889V0.0324286H5.6553V24.2889H0ZM1.04461 24.2889V19.3641H13.2557V24.2889H1.04461Z" fill="var(--fill-0, #001137)"/>
<path id="Vector_3" d="M14.7926 24.2889V0.0324286H20.5559V24.2889H14.7926Z" fill="var(--fill-0, #001137)"/>
<path id="Vector_4" d="M23.7106 24.2889V0.0324286H29.3658V10.8376C30.1583 10.2495 30.8787 9.57576 31.5271 8.81618C32.1755 8.05667 32.7518 7.22361 33.2561 6.31705C33.7605 5.41051 34.1807 4.44269 34.5168 3.41363C34.8531 2.36007 35.0932 1.233 35.2373 0.0324286H41.577C41.3608 1.30651 41.0247 2.54383 40.5684 3.7444C40.1121 4.92047 39.5358 6.02304 38.8394 7.05208C38.143 8.08118 37.3505 9.01222 36.462 9.84528C35.5975 10.6783 34.6489 11.3644 33.6164 11.9034V12.3076C34.5529 12.3076 35.3933 12.4179 36.1378 12.6385C36.9062 12.8344 37.5786 13.153 38.155 13.594C38.7314 14.035 39.2116 14.6353 39.5958 15.3949C39.98 16.1299 40.2803 17.0242 40.4964 18.0778L41.7571 24.2889H35.6695L34.9131 19.6581C34.721 18.4085 34.4689 17.4408 34.1566 16.7547C33.8685 16.0442 33.4602 15.5419 32.9319 15.2478C32.4036 14.9538 31.6832 14.8068 30.7707 14.8068H29.3658V24.2889H23.7106Z" fill="var(--fill-0, #001137)"/>
<path id="Vector_5" d="M53.2445 24.8791C51.346 24.8791 49.67 24.6067 48.2164 24.0619C46.7925 23.4868 45.5763 22.6848 44.5677 21.6557C43.5888 20.5964 42.8472 19.3252 42.3429 17.8422C41.8386 16.359 41.5865 14.6944 41.5865 12.8481C41.5865 11.0019 41.8386 9.30694 42.3429 7.76333C42.8472 6.18951 43.574 4.82751 44.5232 3.67738C45.4724 2.49699 46.6442 1.58899 48.0385 0.953396C49.4327 0.317799 51.0345 0 52.844 0C54.5349 0 56.033 0.287532 57.3382 0.862597C58.6731 1.43766 59.7855 2.30026 60.6755 3.45038C61.5951 4.57025 62.2625 5.96251 62.6778 7.62715C63.0931 9.26153 63.2414 11.1532 63.1228 13.3022L45.0572 13.4837V10.2149L59.7855 10.0787L58.0947 11.9401C58.243 10.2452 58.1095 8.85299 57.6942 7.76333C57.2789 6.64351 56.6411 5.81117 55.7808 5.26637C54.9503 4.69131 53.9861 4.40378 52.8886 4.40378C51.6427 4.40378 50.5599 4.73671 49.6403 5.40258C48.7207 6.06844 48.0088 7.02181 47.5044 8.26278C47.0298 9.50368 46.7925 11.0019 46.7925 12.7574C46.7925 15.3906 47.3561 17.373 48.4834 18.7047C49.6403 20.0365 51.2422 20.7023 53.289 20.7023C54.179 20.7023 54.9354 20.5812 55.5583 20.3391C56.211 20.0969 56.7449 19.7792 57.1603 19.3857C57.5755 18.9922 57.9019 18.5383 58.1391 18.0237C58.3765 17.5092 58.5545 16.9795 58.6731 16.4347L63.4342 17.3881C63.2266 18.508 62.8707 19.5219 62.3663 20.4299C61.862 21.3379 61.1798 22.1249 60.3195 22.7907C59.4889 23.4566 58.4951 23.9711 57.3382 24.3343C56.1813 24.6975 54.8167 24.8791 53.2445 24.8791Z" fill="var(--fill-0, #001137)"/>
<path id="Vector_6" d="M80.3352 24.2903V0.0338088H88.6559L92.9064 17.9322H93.2311L97.4456 0.0338088H105.586V24.2903H100.363L100.651 5.69365H100.219L95.4642 24.2903H90.4215L85.7027 5.69365H85.3059L85.5945 24.2903H80.3352Z" fill="var(--fill-0, #001137)"/>
<path id="Vector_7" d="M119.81 24.8805C117.912 24.8805 116.236 24.6081 114.783 24.0633C113.358 23.4882 112.142 22.6862 111.134 21.6571C110.154 20.5978 109.413 19.3265 108.909 17.8435C108.404 16.3604 108.153 14.6958 108.153 12.8495C108.153 11.0033 108.404 9.30833 108.909 7.76472C109.413 6.19089 110.14 4.8289 111.089 3.67876C112.038 2.49837 113.21 1.59038 114.604 0.954778C115.998 0.319179 117.6 0.00138008 119.41 0.00138008C121.101 0.00138008 122.599 0.288912 123.904 0.863979C125.239 1.43904 126.351 2.30164 127.241 3.45176C128.161 4.57163 128.828 5.96389 129.244 7.62854C129.659 9.26292 129.807 11.1546 129.688 13.3035L111.623 13.4851V10.2163L126.351 10.0801L124.66 11.9415C124.809 10.2466 124.675 8.85438 124.26 7.76472C123.844 6.64488 123.207 5.81256 122.346 5.26776C121.516 4.69269 120.552 4.40516 119.454 4.40516C118.208 4.40516 117.126 4.73809 116.206 5.40396C115.286 6.06982 114.574 7.02319 114.071 8.26417C113.595 9.50507 113.358 11.0033 113.358 12.7588C113.358 15.3919 113.922 17.3744 115.049 18.7061C116.206 20.0378 117.808 20.7037 119.855 20.7037C120.745 20.7037 121.501 20.5826 122.124 20.3405C122.776 20.0983 123.311 19.7806 123.726 19.3871C124.141 18.9936 124.468 18.5397 124.705 18.0251C124.942 17.5106 125.12 16.9809 125.239 16.4361L130 17.3895C129.792 18.5094 129.436 19.5233 128.932 20.4313C128.428 21.3393 127.746 22.1262 126.885 22.7921C126.054 23.4579 125.061 23.9725 123.904 24.3357C122.747 24.6989 121.383 24.8805 119.81 24.8805Z" fill="var(--fill-0, #001137)"/>
<path id="Vector_8" d="M71.4544 10.9525C70.0285 10.9525 68.9592 10.6477 68.2459 10.0381C67.5332 9.39458 67.1768 8.41243 67.1768 7.0916C67.1768 5.73686 67.5332 4.75469 68.2459 4.14508C68.9592 3.50159 70.0285 3.17985 71.4544 3.17985C72.9143 3.17985 74.0006 3.50159 74.7132 4.14508C75.4599 4.75469 75.8336 5.73686 75.8336 7.0916C75.8336 9.66549 74.3736 10.9525 71.4544 10.9525Z" fill="url(#paint1_radial_0_90)"/>
</g>
<defs>
<radialGradient id="paint0_radial_0_90" cx="0" cy="0" r="1" gradientUnits="userSpaceOnUse" gradientTransform="translate(71.5054 13.1025) rotate(90) scale(9.26153 7.83982)">
<stop stop-color="#D8E4D6"/>
<stop offset="0.807692" stop-color="#0154F8"/>
<stop offset="0.966346" stop-color="#00297B"/>
</radialGradient>
<radialGradient id="paint1_radial_0_90" cx="0" cy="0" r="1" gradientUnits="userSpaceOnUse" gradientTransform="translate(71.5054 11.6288) rotate(-90) scale(9.26153 7.83982)">
<stop offset="0.0961538" stop-color="#D8E4D6"/>
<stop offset="0.807692" stop-color="#EB7DC6"/>
<stop offset="0.966346" stop-color="#B14D8F"/>
</radialGradient>
<clipPath id="clip0_0_90">
<rect width="130" height="25" fill="white"/>
</clipPath>
</defs>
</svg>
