<svg preserveAspectRatio="none" width="100%" height="100%" overflow="visible" style="display: block;" viewBox="0 0 254.919 512.104" fill="none" xmlns="http://www.w3.org/2000/svg">
<g id="LIKe.Me">
<path d="M125.96 230.157C83.9729 230.157 52.4829 221.132 31.4896 203.08C10.4962 184.026 0 154.943 0 115.831C0 75.7163 10.4962 46.6332 31.4896 28.5816C52.4829 9.52718 83.9729 0 125.96 0C168.946 0 200.936 9.52718 221.93 28.5816C243.923 46.6332 254.919 75.7163 254.919 115.831C254.919 192.049 211.933 230.157 125.96 230.157Z" fill="var(--fill-0, black)"/>
<path d="M125.96 512.104C83.9729 512.104 52.4829 503.079 31.4896 485.027C10.4962 465.973 0 436.89 0 397.778C0 357.663 10.4962 328.58 31.4896 310.529C52.4829 291.474 83.9729 281.947 125.96 281.947C168.946 281.947 200.936 291.474 221.93 310.529C243.923 328.58 254.919 357.663 254.919 397.778C254.919 473.996 211.933 512.104 125.96 512.104Z" fill="var(--fill-0, black)"/>
</g>
</svg>
