<svg preserveAspectRatio="none" width="100%" height="100%" overflow="visible" style="display: block;" viewBox="0 0 400 74.4186" fill="none" xmlns="http://www.w3.org/2000/svg">
<g id="Group 511">
<g id="LIKe.Me">
<path d="M0 72.6492V0.0969955H17.4009V72.6492H0ZM3.21418 72.6492V57.9189H40.7869V72.6492H3.21418Z" fill="var(--fill-0, #001137)"/>
<path d="M45.5155 72.6492V0.0969955H63.2489V72.6492H45.5155Z" fill="var(--fill-0, #001137)"/>
<path d="M72.9556 72.6492V0.0969955H90.3565V32.4157C92.7948 30.6569 95.0115 28.6415 97.0065 26.3697C99.0015 24.0978 100.775 21.6062 102.327 18.8946C103.878 16.1831 105.171 13.2883 106.206 10.2103C107.24 7.05908 107.979 3.68796 108.422 0.0969955H127.929C127.264 3.90782 126.23 7.60871 124.826 11.1997C123.422 14.7174 121.649 18.0152 119.506 21.0932C117.363 24.1711 114.925 26.956 112.191 29.4476C109.531 31.9393 106.612 33.9913 103.435 35.6036V36.8128C106.317 36.8128 108.903 37.1426 111.193 37.8021C113.558 38.3884 115.627 39.3411 117.4 40.6603C119.173 41.9794 120.651 43.7749 121.833 46.0467C123.016 48.2453 123.939 50.9202 124.604 54.0714L128.483 72.6492H109.752L107.425 58.7983C106.834 55.0608 106.058 52.166 105.097 50.114C104.211 47.9888 102.955 46.4864 101.329 45.607C99.7035 44.7276 97.4868 44.2879 94.679 44.2879H90.3565V72.6492H72.9556Z" fill="var(--fill-0, #001137)"/>
<path d="M163.829 74.4145C157.988 74.4145 152.831 73.5997 148.358 71.9702C143.977 70.2502 140.235 67.8512 137.131 64.7732C134.119 61.6047 131.837 57.8025 130.286 53.3666C128.734 48.9307 127.958 43.9516 127.958 38.4294C127.958 32.9071 128.734 27.8375 130.286 23.2206C131.837 18.5131 134.074 14.4393 136.994 10.9992C139.915 7.46861 143.521 4.75275 147.811 2.85165C152.1 0.950551 157.029 0 162.597 0C167.8 0 172.409 0.860021 176.425 2.58006C180.533 4.30011 183.955 6.88017 186.694 10.3203C189.523 13.6698 191.577 17.8341 192.855 22.8132C194.133 27.7017 194.589 33.3598 194.224 39.7873L138.637 40.3305V30.5534L183.955 30.146L178.753 35.7135C179.209 30.6439 178.798 26.4796 177.521 23.2206C176.243 19.871 174.28 17.3815 171.633 15.752C169.078 14.0319 166.111 13.1719 162.734 13.1719C158.9 13.1719 155.569 14.1677 152.739 16.1594C149.91 18.151 147.719 21.0026 146.168 24.7143C144.707 28.426 143.977 32.9071 143.977 38.1578C143.977 46.0338 145.711 51.9634 149.18 55.9467C152.739 59.9299 157.668 61.9215 163.966 61.9215C166.704 61.9215 169.032 61.5594 170.949 60.8352C172.957 60.111 174.6 59.1604 175.878 57.9835C177.155 56.8067 178.159 55.4487 178.89 53.9098C179.62 52.3708 180.168 50.7865 180.533 49.157L195.182 52.0087C194.543 55.3582 193.448 58.3909 191.896 61.1068C190.345 63.8226 188.245 66.1764 185.598 68.168C183.043 70.1596 179.985 71.6986 176.425 72.785C172.866 73.8713 168.667 74.4145 163.829 74.4145Z" fill="var(--fill-0, #001137)"/>
<path d="M247.185 72.6533V0.101123H272.788L285.867 53.6358H286.864L299.832 0.101123H324.88V72.6533H308.809L309.696 17.03H308.366L293.736 72.6533H278.219L263.7 17.03H262.481L263.367 72.6533H247.185Z" fill="var(--fill-0, #001137)"/>
<path d="M368.647 74.4186C362.805 74.4186 357.648 73.6038 353.176 71.9743C348.795 70.2543 345.052 67.8553 341.949 64.7773C338.937 61.6088 336.655 57.8066 335.103 53.3707C333.552 48.9348 332.776 43.9557 332.776 38.4335C332.776 32.9113 333.552 27.8417 335.103 23.2247C336.655 18.5172 338.891 14.4434 341.812 11.0033C344.733 7.47273 348.338 4.75688 352.628 2.85578C356.918 0.954679 361.847 0.0041279 367.415 0.0041279C372.617 0.0041279 377.227 0.864149 381.243 2.58419C385.35 4.30424 388.773 6.8843 391.511 10.3244C394.341 13.6739 396.395 17.8383 397.672 22.8173C398.95 27.7059 399.407 33.3639 399.042 39.7914L343.455 40.3346V30.5575L388.773 30.1501L383.57 35.7176C384.027 30.648 383.616 26.4837 382.338 23.2247C381.06 19.8751 379.098 17.3856 376.451 15.7561C373.895 14.0361 370.929 13.176 367.552 13.176C363.718 13.176 360.387 14.1718 357.557 16.1635C354.728 18.1551 352.537 21.0068 350.985 24.7184C349.525 28.4301 348.795 32.9113 348.795 38.1619C348.795 46.0379 350.529 51.9675 353.997 55.9508C357.557 59.934 362.486 61.9257 368.784 61.9257C371.522 61.9257 373.85 61.5635 375.766 60.8393C377.775 60.1151 379.417 59.1645 380.695 57.9877C381.973 56.8108 382.977 55.4529 383.707 53.9139C384.438 52.3749 384.985 50.7907 385.35 49.1611L400 52.0128C399.361 55.3623 398.266 58.3951 396.714 61.1109C395.162 63.8268 393.063 66.1805 390.416 68.1721C387.86 70.1638 384.803 71.7027 381.243 72.7891C377.683 73.8754 373.485 74.4186 368.647 74.4186Z" fill="var(--fill-0, #001137)"/>
</g>
</g>
</svg>
