<svg viewBox="3.68421 1.84211 29.01319 26.18759" fill="none" xmlns="http://www.w3.org/2000/svg">
  <path d="M18.0201 28.0297C13.2414 28.0297 9.65746 27.0028 7.26814 24.9488C4.87881 22.7808 3.68421 19.4717 3.68421 15.0215C3.68421 10.4572 4.87881 7.1481 7.26814 5.09416C9.65746 2.92612 13.2414 1.84211 18.0201 1.84211C22.9125 1.84211 26.5534 2.92612 28.9427 5.09416C31.4458 7.1481 32.6974 10.4572 32.6974 15.0215C32.6974 23.6937 27.8049 28.0297 18.0201 28.0297Z" fill="#001137"/>
  <g transform="translate(18.0201 14.9359)">
    <g transform="translate(-2.1058 -4.77313)">
      <path d="M2.08101 3.81264C1.38734 3.81264 0.867084 3.66313 0.520247 3.3641C0.17341 3.04845 0 2.56668 0 1.91878C0 1.25427 0.17341 0.772496 0.520247 0.473465C0.867084 0.157821 1.38734 0 2.08101 0C2.7912 0 3.31972 0.157821 3.66656 0.473465C4.02991 0.772496 4.21159 1.25427 4.21159 1.91878C4.21159 3.18136 3.50139 3.81264 2.08101 3.81264Z" fill="#FFFFFF"/>
      <path d="M2.08101 9.54626C1.38734 9.54626 0.867084 9.39675 0.520247 9.09772C0.17341 8.78208 0 8.3003 0 7.6524C0 6.98789 0.17341 6.50612 0.520247 6.20709C0.867084 5.89144 1.38734 5.73362 2.08101 5.73362C2.7912 5.73362 3.31972 5.89144 3.66656 6.20709C4.02991 6.50612 4.21159 6.98789 4.21159 7.6524C4.21159 8.91498 3.50139 9.54626 2.08101 9.54626Z" fill="#FFFFFF"/>
    </g>
  </g>
</svg>
