<svg width="6" height="13" viewBox="0 0 6 13" fill="none" xmlns="http://www.w3.org/2000/svg">
<path d="M2.88751 12.8563C1.92501 12.8563 1.20313 12.6549 0.721877 12.2522C0.240626 11.8271 0 11.1783 0 10.3058C0 9.41083 0.240626 8.76201 0.721877 8.3593C1.20313 7.93421 1.92501 7.72166 2.88751 7.72166C3.87293 7.72166 4.60626 7.93421 5.08751 8.3593C5.59168 8.76201 5.84377 9.41083 5.84377 10.3058C5.84377 12.0061 4.85834 12.8563 2.88751 12.8563Z" fill="#F4F3EC"/>
<path d="M2.88751 5.13462C1.92501 5.13462 1.20313 4.93326 0.721877 4.53055C0.240626 4.10546 0 3.45664 0 2.58409C0 1.68917 0.240626 1.04035 0.721877 0.637632C1.20313 0.212544 1.92501 0 2.88751 0C3.87293 0 4.60626 0.212544 5.08751 0.637632C5.59168 1.04035 5.84377 1.68917 5.84377 2.58409C5.84377 4.28444 4.85834 5.13462 2.88751 5.13462Z" fill="#F4F3EC"/>
</svg>
