<svg width="213" height="92" viewBox="0 0 213 92" fill="none" xmlns="http://www.w3.org/2000/svg">
<g filter="url(#filter0_d_115817_14273)">
<path d="M48.8634 75.9139L162.229 75.9117L162.862 75.9138C189.323 75.9138 202.554 64.1802 202.554 40.7127C202.554 28.3612 199.17 19.4066 192.4 13.8485C185.939 7.98158 176.093 5.0481 162.862 5.0481L162.237 5.05026L48.8634 5.04817C35.9418 5.04817 26.2482 7.98166 19.7874 13.8486C13.3266 19.4066 10.0962 28.3612 10.0962 40.7128C10.0962 52.7553 13.3266 61.7099 19.7874 67.5769C26.2482 73.1349 35.9418 75.9139 48.8634 75.9139Z" fill="#FBF7E5"/>
</g>
<defs>
<filter id="filter0_d_115817_14273" x="7.9155e-05" y="3.95775e-05" width="212.65" height="91.0581" filterUnits="userSpaceOnUse" color-interpolation-filters="sRGB">
<feFlood flood-opacity="0" result="BackgroundImageFix"/>
<feColorMatrix in="SourceAlpha" type="matrix" values="0 0 0 0 0 0 0 0 0 0 0 0 0 0 0 0 0 0 127 0" result="hardAlpha"/>
<feOffset dy="5.04806"/>
<feGaussianBlur stdDeviation="5.04806"/>
<feComposite in2="hardAlpha" operator="out"/>
<feColorMatrix type="matrix" values="0 0 0 0 0 0 0 0 0 0 0 0 0 0 0 0 0 0 0.1 0"/>
<feBlend mode="normal" in2="BackgroundImageFix" result="effect1_dropShadow_115817_14273"/>
<feBlend mode="normal" in="SourceGraphic" in2="effect1_dropShadow_115817_14273" result="shape"/>
</filter>
</defs>
</svg>
