<svg width="187" height="92" viewBox="0 0 187 92" fill="none" xmlns="http://www.w3.org/2000/svg">
<g filter="url(#filter0_d_115817_14161)">
<path d="M48.9557 76.0576L136.438 76.0555L137.072 76.0576C163.583 76.0576 176.838 64.3018 176.838 40.7898C176.838 28.4149 173.448 19.4433 166.666 13.8747C160.193 7.99666 150.327 5.05762 137.072 5.05762L136.445 5.05978L48.9557 5.05762C36.0097 5.05762 26.2977 7.99666 19.8247 13.8747C13.3517 19.4433 10.1152 28.4149 10.1152 40.7898C10.1152 52.8552 13.3517 61.8267 19.8247 67.7048C26.2977 73.2733 36.0097 76.0576 48.9557 76.0576Z" fill="#FBF7E5"/>
</g>
<defs>
<filter id="filter0_d_115817_14161" x="-9.53674e-07" y="7.15256e-06" width="186.954" height="91.2304" filterUnits="userSpaceOnUse" color-interpolation-filters="sRGB">
<feFlood flood-opacity="0" result="BackgroundImageFix"/>
<feColorMatrix in="SourceAlpha" type="matrix" values="0 0 0 0 0 0 0 0 0 0 0 0 0 0 0 0 0 0 127 0" result="hardAlpha"/>
<feOffset dy="5.05761"/>
<feGaussianBlur stdDeviation="5.05761"/>
<feComposite in2="hardAlpha" operator="out"/>
<feColorMatrix type="matrix" values="0 0 0 0 0 0 0 0 0 0 0 0 0 0 0 0 0 0 0.08 0"/>
<feBlend mode="normal" in2="BackgroundImageFix" result="effect1_dropShadow_115817_14161"/>
<feBlend mode="normal" in="SourceGraphic" in2="effect1_dropShadow_115817_14161" result="shape"/>
</filter>
</defs>
</svg>
