<svg preserveAspectRatio="none" width="100%" height="100%" overflow="visible" style="display: block;" viewBox="0 0 135.509 25.4188" fill="none" xmlns="http://www.w3.org/2000/svg">
<g id="Group 10228">
<g id="Group 512">
<g id="LIKe.Me">
<path d="M0 24.8144V0.0331303H5.89495V24.8144H0ZM1.08888 24.8144V19.7831H13.8175V24.8144H1.08888Z" fill="var(--fill-0, #001137)"/>
<path d="M15.4194 24.8144V0.0331303H21.427V24.8144H15.4194Z" fill="var(--fill-0, #001137)"/>
<path d="M24.7153 24.8144V0.0331303H30.6103V11.0721C31.4363 10.4713 32.1872 9.78295 32.8631 9.00697C33.539 8.23099 34.1397 7.37991 34.6654 6.45374C35.191 5.52757 35.6291 4.53882 35.9795 3.48749C36.33 2.41114 36.5803 1.25968 36.7305 0.0331303H43.3388C43.1135 1.33477 42.7631 2.59887 42.2875 3.82542C41.8119 5.02694 41.2111 6.15336 40.4852 7.20469C39.7593 8.25602 38.9333 9.20722 38.0071 10.0583C37.106 10.9094 36.1172 11.6103 35.0408 12.161V12.574C36.0171 12.574 36.8932 12.6866 37.6692 12.9119C38.4702 13.1122 39.1711 13.4376 39.7718 13.8881C40.3726 14.3387 40.8732 14.952 41.2737 15.728C41.6742 16.4789 41.9871 17.3926 42.2124 18.4689L43.5266 24.8144H37.1811L36.3926 20.0835C36.1923 18.8068 35.9295 17.8181 35.6041 17.1172C35.3037 16.3913 34.8781 15.8781 34.3274 15.5778C33.7768 15.2774 33.0258 15.1272 32.0746 15.1272H30.6103V24.8144H24.7153Z" fill="var(--fill-0, #001137)"/>
<path d="M55.5008 25.4174C53.5218 25.4174 51.7748 25.1391 50.2596 24.5825C48.7754 23.995 47.5076 23.1756 46.4563 22.1243C45.4359 21.042 44.6628 19.7433 44.1372 18.2282C43.6115 16.713 43.3487 15.0123 43.3487 13.1261C43.3487 11.2399 43.6115 9.50834 44.1372 7.93134C44.6628 6.32343 45.4204 4.93197 46.4099 3.75695C47.3994 2.55102 48.6208 1.62337 50.0741 0.974026C51.5274 0.324675 53.1972 0 55.0834 0C56.8459 0 58.4074 0.293753 59.768 0.88126C61.1594 1.46877 62.319 2.35003 63.2466 3.52504C64.2052 4.66913 64.9009 6.09152 65.3338 7.7922C65.7667 9.46195 65.9213 11.3945 65.7976 13.59L46.9665 13.7755V10.436L62.319 10.2968L60.5565 12.1985C60.7111 10.4669 60.5719 9.04451 60.139 7.93134C59.7061 6.78725 59.0413 5.93691 58.1446 5.38033C57.2788 4.79282 56.2738 4.49907 55.1297 4.49907C53.831 4.49907 52.7024 4.8392 51.7439 5.51947C50.7853 6.19974 50.0432 7.17377 49.5175 8.44155C49.0228 9.70933 48.7754 11.2399 48.7754 13.0334C48.7754 15.7235 49.3629 17.7489 50.5379 19.1094C51.7439 20.47 53.4136 21.1502 55.5472 21.1502C56.4748 21.1502 57.2633 21.0266 57.9127 20.7792C58.5929 20.5318 59.1495 20.2071 59.5824 19.8052C60.0153 19.4032 60.3555 18.9394 60.6028 18.4137C60.8502 17.888 61.0357 17.3469 61.1594 16.7903L66.1223 17.7644C65.9059 18.9084 65.5348 19.9443 65.0091 20.872C64.4835 21.7996 63.7723 22.6036 62.8756 23.2838C62.0098 23.9641 60.9739 24.4898 59.768 24.8608C58.562 25.2319 57.1396 25.4174 55.5008 25.4174Z" fill="var(--fill-0, #001137)"/>
<path d="M83.7395 24.8158V0.0345403H92.413L96.8436 18.3201H97.1815L101.575 0.0345403H110.06V24.8158H104.616L104.916 5.81684H104.466L99.5095 24.8158H94.2528L89.3341 5.81684H88.9211L89.2215 24.8158H83.7395Z" fill="var(--fill-0, #001137)"/>
<path d="M124.887 25.4188C122.908 25.4188 121.161 25.1405 119.646 24.5839C118.162 23.9964 116.894 23.177 115.843 22.1257C114.822 21.0434 114.049 19.7447 113.524 18.2296C112.998 16.7144 112.735 15.0138 112.735 13.1276C112.735 11.2413 112.998 9.50975 113.524 7.93275C114.049 6.32484 114.807 4.93338 115.796 3.75836C116.786 2.55243 118.007 1.62478 119.461 0.975436C120.914 0.326085 122.584 0.00140995 124.47 0.00140995C126.232 0.00140995 127.794 0.295163 129.154 0.88267C130.546 1.47018 131.705 2.35144 132.633 3.52645C133.592 4.67054 134.287 6.09293 134.72 7.79361C135.153 9.46336 135.308 11.396 135.184 13.5914L116.353 13.7769V10.4374L131.705 10.2982L129.943 12.1999C130.098 10.4683 129.958 9.04592 129.526 7.93275C129.093 6.78866 128.428 5.93832 127.531 5.38174C126.665 4.79423 125.66 4.50048 124.516 4.50048C123.218 4.50048 122.089 4.84061 121.13 5.52088C120.172 6.20115 119.43 7.17518 118.904 8.44296C118.409 9.71074 118.162 11.2413 118.162 13.0348C118.162 15.725 118.749 17.7503 119.924 19.1108C121.13 20.4714 122.8 21.1517 124.934 21.1517C125.861 21.1517 126.65 21.028 127.299 20.7806C127.979 20.5332 128.536 20.2086 128.969 19.8066C129.402 19.4046 129.742 18.9408 129.989 18.4151C130.237 17.8895 130.422 17.3483 130.546 16.7917L135.509 17.7658C135.292 18.9099 134.921 19.9457 134.396 20.8734C133.87 21.801 133.159 22.605 132.262 23.2852C131.396 23.9655 130.36 24.4912 129.154 24.8622C127.949 25.2333 126.526 25.4188 124.887 25.4188Z" fill="var(--fill-0, #001137)"/>
</g>
</g>
<path id="LIKe.Me_2" d="M74.4365 11.4053C73.0999 11.4053 72.0975 11.1212 71.4292 10.5529C70.7609 9.95308 70.4267 9.03752 70.4267 7.80625C70.4267 6.54341 70.7609 5.62785 71.4292 5.05957C72.0975 4.45972 73.0999 4.1598 74.4365 4.1598C75.8049 4.1598 76.8233 4.45972 77.4916 5.05957C78.1917 5.62785 78.5417 6.54341 78.5417 7.80625C78.5417 10.2056 77.1733 11.4053 74.4365 11.4053Z" fill="var(--fill-0, #001137)"/>
<path id="LIKe.Me_3" d="M74.5311 14.8827C75.8677 14.8827 76.8701 15.1669 77.5384 15.7352C78.2067 16.335 78.5409 17.2506 78.5409 18.4818C78.5409 19.7447 78.2067 20.6602 77.5384 21.2285C76.8701 21.8284 75.8677 22.1283 74.5311 22.1283C73.1627 22.1283 72.1443 21.8284 71.4761 21.2285C70.7759 20.6602 70.4259 19.7447 70.4259 18.4818C70.4259 16.0824 71.7943 14.8827 74.5311 14.8827Z" fill="var(--fill-0, #001137)"/>
</g>
</svg>
